<svg width="111" height="27" viewBox="0 0 111 27" fill="none" xmlns="http://www.w3.org/2000/svg">
<path d="M43.116 16.724C42.912 17.78 42.426 18.632 41.658 19.28C40.902 19.928 39.888 20.252 38.616 20.252C37.956 20.252 37.338 20.15 36.762 19.946C36.198 19.742 35.706 19.448 35.286 19.064C34.866 18.68 34.536 18.206 34.296 17.642C34.056 17.078 33.936 16.436 33.936 15.716V15.5C33.936 14.78 34.056 14.132 34.296 13.556C34.536 12.98 34.866 12.488 35.286 12.08C35.718 11.672 36.216 11.36 36.78 11.144C37.356 10.928 37.968 10.82 38.616 10.82C39.864 10.82 40.872 11.144 41.64 11.792C42.42 12.44 42.912 13.292 43.116 14.348L40.884 14.924C40.812 14.396 40.584 13.94 40.2 13.556C39.816 13.172 39.276 12.98 38.58 12.98C38.256 12.98 37.95 13.04 37.662 13.16C37.374 13.28 37.122 13.454 36.906 13.682C36.69 13.898 36.516 14.168 36.384 14.492C36.264 14.804 36.204 15.158 36.204 15.554V15.662C36.204 16.058 36.264 16.412 36.384 16.724C36.516 17.024 36.69 17.276 36.906 17.48C37.122 17.684 37.374 17.84 37.662 17.948C37.95 18.044 38.256 18.092 38.58 18.092C39.276 18.092 39.804 17.918 40.164 17.57C40.536 17.222 40.776 16.754 40.884 16.166L43.116 16.724ZM47.7295 20H45.4615V7.4H47.7295V12.512H48.0535C48.2815 11.972 48.6175 11.558 49.0615 11.27C49.5055 10.97 50.0515 10.82 50.6995 10.82C51.1435 10.82 51.5515 10.892 51.9235 11.036C52.2955 11.18 52.6195 11.396 52.8955 11.684C53.1715 11.972 53.3875 12.344 53.5435 12.8C53.6995 13.244 53.7775 13.772 53.7775 14.384V20H51.5095V14.924C51.5095 14.288 51.3535 13.79 51.0415 13.43C50.7415 13.058 50.3035 12.872 49.7275 12.872C49.0555 12.872 48.5515 13.1 48.2155 13.556C47.8915 14 47.7295 14.6 47.7295 15.356V20ZM62.225 18.704C61.985 19.268 61.649 19.67 61.217 19.91C60.785 20.138 60.281 20.252 59.705 20.252C59.165 20.252 58.655 20.15 58.175 19.946C57.707 19.742 57.293 19.442 56.933 19.046C56.573 18.65 56.285 18.17 56.069 17.606C55.865 17.042 55.763 16.4 55.763 15.68V15.392C55.763 14.684 55.865 14.048 56.069 13.484C56.273 12.92 56.549 12.44 56.897 12.044C57.245 11.648 57.647 11.348 58.103 11.144C58.571 10.928 59.069 10.82 59.597 10.82C60.233 10.82 60.743 10.928 61.127 11.144C61.523 11.36 61.835 11.696 62.063 12.152H62.387V11.072H64.655V17.3C64.655 17.66 64.817 17.84 65.141 17.84H65.483V20H63.935C63.527 20 63.191 19.88 62.927 19.64C62.675 19.4 62.549 19.088 62.549 18.704H62.225ZM60.209 18.092C60.869 18.092 61.397 17.876 61.793 17.444C62.189 17 62.387 16.4 62.387 15.644V15.428C62.387 14.672 62.189 14.078 61.793 13.646C61.397 13.202 60.869 12.98 60.209 12.98C59.549 12.98 59.021 13.202 58.625 13.646C58.229 14.078 58.031 14.672 58.031 15.428V15.644C58.031 16.4 58.229 17 58.625 17.444C59.021 17.876 59.549 18.092 60.209 18.092ZM67.0365 11.072H70.8165V12.368H71.1405C71.3085 11.876 71.5905 11.498 71.9865 11.234C72.3945 10.958 72.8805 10.82 73.4445 10.82C74.3325 10.82 75.0465 11.102 75.5865 11.666C76.1265 12.218 76.3965 13.064 76.3965 14.204V14.6L74.0565 14.816V14.564C74.0565 14.072 73.9305 13.682 73.6785 13.394C73.4265 13.094 73.0485 12.944 72.5445 12.944C72.0405 12.944 71.6445 13.118 71.3565 13.466C71.0685 13.814 70.9245 14.312 70.9245 14.96V17.84H72.9765V20H66.8205V17.84H68.6565V13.232H67.0365V11.072ZM78.4359 17.84H81.5679V9.56H78.5439V7.4H83.8359V17.84H86.7519V20H78.4359V17.84ZM89.6734 17.84H92.6974V13.232H89.8894V11.072H94.9654V17.84H97.5574V20H89.6734V17.84ZM95.5234 8.426C95.5234 8.666 95.4754 8.894 95.3794 9.11C95.2954 9.314 95.1754 9.494 95.0194 9.65C94.8634 9.794 94.6774 9.914 94.4614 10.01C94.2574 10.094 94.0414 10.136 93.8134 10.136C93.5734 10.136 93.3514 10.094 93.1474 10.01C92.9434 9.914 92.7634 9.794 92.6074 9.65C92.4514 9.494 92.3254 9.314 92.2294 9.11C92.1454 8.894 92.1034 8.666 92.1034 8.426C92.1034 8.186 92.1454 7.964 92.2294 7.76C92.3254 7.544 92.4514 7.364 92.6074 7.22C92.7634 7.064 92.9434 6.944 93.1474 6.86C93.3514 6.764 93.5734 6.716 93.8134 6.716C94.0414 6.716 94.2574 6.764 94.4614 6.86C94.6774 6.944 94.8634 7.064 95.0194 7.22C95.1754 7.364 95.2954 7.544 95.3794 7.76C95.4754 7.964 95.5234 8.186 95.5234 8.426ZM102.531 16.274C102.543 16.538 102.603 16.784 102.711 17.012C102.831 17.228 102.987 17.42 103.179 17.588C103.383 17.744 103.611 17.87 103.863 17.966C104.127 18.05 104.403 18.092 104.691 18.092C105.255 18.092 105.687 17.996 105.987 17.804C106.287 17.6 106.503 17.36 106.635 17.084L108.579 18.164C108.471 18.392 108.321 18.632 108.129 18.884C107.937 19.124 107.685 19.346 107.373 19.55C107.073 19.754 106.701 19.922 106.257 20.054C105.825 20.186 105.315 20.252 104.727 20.252C104.055 20.252 103.443 20.144 102.891 19.928C102.339 19.712 101.859 19.4 101.451 18.992C101.055 18.584 100.743 18.086 100.515 17.498C100.299 16.91 100.191 16.244 100.191 15.5V15.392C100.191 14.708 100.305 14.084 100.533 13.52C100.773 12.956 101.097 12.476 101.505 12.08C101.913 11.684 102.387 11.378 102.927 11.162C103.479 10.934 104.067 10.82 104.691 10.82C105.459 10.82 106.119 10.958 106.671 11.234C107.223 11.498 107.679 11.84 108.039 12.26C108.399 12.668 108.663 13.124 108.831 13.628C108.999 14.12 109.083 14.6 109.083 15.068V16.274H102.531ZM104.673 12.872C104.097 12.872 103.629 13.022 103.269 13.322C102.909 13.61 102.675 13.946 102.567 14.33H106.779C106.707 13.91 106.479 13.562 106.095 13.286C105.723 13.01 105.249 12.872 104.673 12.872Z" fill="black"/>
<path d="M5.544 18.092C6 18.092 6.372 18.026 6.66 17.894C6.96 17.75 7.188 17.564 7.344 17.336C7.512 17.096 7.626 16.826 7.686 16.526C7.746 16.214 7.776 15.896 7.776 15.572V15.248H10.152V15.572C10.152 17.072 9.756 18.23 8.964 19.046C8.184 19.85 7.044 20.252 5.544 20.252C4.104 20.252 2.964 19.814 2.124 18.938C1.284 18.062 0.864 16.784 0.864 15.104V12.296C0.864 11.492 0.972 10.772 1.188 10.136C1.404 9.488 1.716 8.948 2.124 8.516C2.532 8.072 3.024 7.736 3.6 7.508C4.176 7.268 4.824 7.148 5.544 7.148C6.288 7.148 6.948 7.256 7.524 7.472C8.1 7.688 8.58 8 8.964 8.408C9.36 8.816 9.654 9.308 9.846 9.884C10.05 10.46 10.152 11.108 10.152 11.828V12.152H7.776V11.828C7.776 11.528 7.74 11.228 7.668 10.928C7.596 10.628 7.476 10.358 7.308 10.118C7.14 9.878 6.912 9.686 6.624 9.542C6.336 9.386 5.976 9.308 5.544 9.308C5.148 9.308 4.806 9.386 4.518 9.542C4.23 9.686 3.99 9.89 3.798 10.154C3.606 10.406 3.462 10.706 3.366 11.054C3.282 11.39 3.24 11.744 3.24 12.116V15.284C3.24 15.692 3.282 16.07 3.366 16.418C3.45 16.754 3.582 17.048 3.762 17.3C3.942 17.552 4.176 17.75 4.464 17.894C4.764 18.026 5.124 18.092 5.544 18.092Z" fill="black"/>
<circle cx="6.5" cy="13.7" r="1.5" fill="black"/>
<circle cx="11.5" cy="13.7" r="1.5" fill="black"/>
<circle cx="16.5" cy="13.7" r="1.5" fill="black"/>
<circle cx="21.5" cy="13.7" r="1.5" fill="black"/>
</svg>
