<svg width="129" height="36" viewBox="0 0 129 36" fill="none" xmlns="http://www.w3.org/2000/svg">
<path d="M33.392 24.456C34 24.456 34.496 24.368 34.88 24.192C35.28 24 35.584 23.752 35.792 23.448C36.016 23.128 36.168 22.768 36.248 22.368C36.328 21.952 36.368 21.528 36.368 21.096V20.664H39.536V21.096C39.536 23.096 39.008 24.64 37.952 25.728C36.912 26.8 35.392 27.336 33.392 27.336C31.472 27.336 29.952 26.752 28.832 25.584C27.712 24.416 27.152 22.712 27.152 20.472V16.728C27.152 15.656 27.296 14.696 27.584 13.848C27.872 12.984 28.288 12.264 28.832 11.688C29.376 11.096 30.032 10.648 30.8 10.344C31.568 10.024 32.432 9.864 33.392 9.864C34.384 9.864 35.264 10.008 36.032 10.296C36.8 10.584 37.44 11 37.952 11.544C38.48 12.088 38.872 12.744 39.128 13.512C39.4 14.28 39.536 15.144 39.536 16.104V16.536H36.368V16.104C36.368 15.704 36.32 15.304 36.224 14.904C36.128 14.504 35.968 14.144 35.744 13.824C35.52 13.504 35.216 13.248 34.832 13.056C34.448 12.848 33.968 12.744 33.392 12.744C32.864 12.744 32.408 12.848 32.024 13.056C31.64 13.248 31.32 13.52 31.064 13.872C30.808 14.208 30.616 14.608 30.488 15.072C30.376 15.52 30.32 15.992 30.32 16.488V20.712C30.32 21.256 30.376 21.76 30.488 22.224C30.6 22.672 30.776 23.064 31.016 23.4C31.256 23.736 31.568 24 31.952 24.192C32.352 24.368 32.832 24.456 33.392 24.456ZM45.6393 27H42.6153V10.2H45.6393V17.016H46.0713C46.3753 16.296 46.8233 15.744 47.4153 15.36C48.0073 14.96 48.7353 14.76 49.5993 14.76C50.1913 14.76 50.7353 14.856 51.2313 15.048C51.7273 15.24 52.1593 15.528 52.5273 15.912C52.8953 16.296 53.1833 16.792 53.3913 17.4C53.5993 17.992 53.7033 18.696 53.7033 19.512V27H50.6793V20.232C50.6793 19.384 50.4713 18.72 50.0553 18.24C49.6553 17.744 49.0713 17.496 48.3033 17.496C47.4073 17.496 46.7353 17.8 46.2873 18.408C45.8553 19 45.6393 19.8 45.6393 20.808V27ZM64.9666 25.272C64.6466 26.024 64.1986 26.56 63.6226 26.88C63.0466 27.184 62.3746 27.336 61.6066 27.336C60.8866 27.336 60.2066 27.2 59.5666 26.928C58.9426 26.656 58.3906 26.256 57.9106 25.728C57.4306 25.2 57.0466 24.56 56.7586 23.808C56.4866 23.056 56.3506 22.2 56.3506 21.24V20.856C56.3506 19.912 56.4866 19.064 56.7586 18.312C57.0306 17.56 57.3986 16.92 57.8626 16.392C58.3266 15.864 58.8626 15.464 59.4706 15.192C60.0946 14.904 60.7586 14.76 61.4626 14.76C62.3106 14.76 62.9906 14.904 63.5026 15.192C64.0306 15.48 64.4466 15.928 64.7506 16.536H65.1826V15.096H68.2066V23.4C68.2066 23.88 68.4226 24.12 68.8546 24.12H69.3106V27H67.2466C66.7026 27 66.2546 26.84 65.9026 26.52C65.5666 26.2 65.3986 25.784 65.3986 25.272H64.9666ZM62.2786 24.456C63.1586 24.456 63.8626 24.168 64.3906 23.592C64.9186 23 65.1826 22.2 65.1826 21.192V20.904C65.1826 19.896 64.9186 19.104 64.3906 18.528C63.8626 17.936 63.1586 17.64 62.2786 17.64C61.3986 17.64 60.6946 17.936 60.1666 18.528C59.6386 19.104 59.3746 19.896 59.3746 20.904V21.192C59.3746 22.2 59.6386 23 60.1666 23.592C60.6946 24.168 61.3986 24.456 62.2786 24.456ZM71.3819 15.096H76.4219V16.824H76.8539C77.0779 16.168 77.4539 15.664 77.9819 15.312C78.5259 14.944 79.1739 14.76 79.9259 14.76C81.1099 14.76 82.0619 15.136 82.7819 15.888C83.5019 16.624 83.8619 17.752 83.8619 19.272V19.8L80.7419 20.088V19.752C80.7419 19.096 80.5739 18.576 80.2379 18.192C79.9019 17.792 79.3979 17.592 78.7259 17.592C78.0539 17.592 77.5259 17.824 77.1419 18.288C76.7579 18.752 76.5659 19.416 76.5659 20.28V24.12H79.3019V27H71.0939V24.12H73.5419V17.976H71.3819V15.096ZM86.5813 24.12H90.7573V13.08H86.7253V10.2H93.7813V24.12H97.6693V27H86.5813V24.12ZM101.565 24.12H105.597V17.976H101.853V15.096H108.621V24.12H112.077V27H101.565V24.12ZM109.365 11.568C109.365 11.888 109.301 12.192 109.173 12.48C109.061 12.752 108.901 12.992 108.693 13.2C108.485 13.392 108.237 13.552 107.949 13.68C107.677 13.792 107.389 13.848 107.085 13.848C106.765 13.848 106.469 13.792 106.197 13.68C105.925 13.552 105.685 13.392 105.477 13.2C105.269 12.992 105.101 12.752 104.973 12.48C104.861 12.192 104.805 11.888 104.805 11.568C104.805 11.248 104.861 10.952 104.973 10.68C105.101 10.392 105.269 10.152 105.477 9.96C105.685 9.752 105.925 9.592 106.197 9.48C106.469 9.352 106.765 9.288 107.085 9.288C107.389 9.288 107.677 9.352 107.949 9.48C108.237 9.592 108.485 9.752 108.693 9.96C108.901 10.152 109.061 10.392 109.173 10.68C109.301 10.952 109.365 11.248 109.365 11.568ZM118.708 22.032C118.724 22.384 118.804 22.712 118.948 23.016C119.108 23.304 119.316 23.56 119.572 23.784C119.844 23.992 120.148 24.16 120.484 24.288C120.836 24.4 121.204 24.456 121.588 24.456C122.34 24.456 122.916 24.328 123.316 24.072C123.716 23.8 124.004 23.48 124.18 23.112L126.772 24.552C126.628 24.856 126.428 25.176 126.172 25.512C125.916 25.832 125.58 26.128 125.164 26.4C124.764 26.672 124.268 26.896 123.676 27.072C123.1 27.248 122.42 27.336 121.636 27.336C120.74 27.336 119.924 27.192 119.188 26.904C118.452 26.616 117.812 26.2 117.268 25.656C116.74 25.112 116.324 24.448 116.02 23.664C115.732 22.88 115.588 21.992 115.588 21V20.856C115.588 19.944 115.74 19.112 116.044 18.36C116.364 17.608 116.796 16.968 117.34 16.44C117.884 15.912 118.516 15.504 119.236 15.216C119.972 14.912 120.756 14.76 121.588 14.76C122.612 14.76 123.492 14.944 124.228 15.312C124.964 15.664 125.572 16.12 126.052 16.68C126.532 17.224 126.884 17.832 127.108 18.504C127.332 19.16 127.444 19.8 127.444 20.424V22.032H118.708ZM121.564 17.496C120.796 17.496 120.172 17.696 119.692 18.096C119.212 18.48 118.9 18.928 118.756 19.44H124.372C124.276 18.88 123.972 18.416 123.46 18.048C122.964 17.68 122.332 17.496 121.564 17.496Z" fill="black"/>
<circle cx="8.5" cy="25.5" r="1.5" fill="black"/>
<ellipse cx="1.5" cy="18.5" rx="1.5" ry="1.5" transform="rotate(90 1.5 18.5)" fill="black"/>
<circle cx="3.69092" cy="23.3083" r="1.7" transform="rotate(45 3.69092 23.3083)" fill="black"/>
<circle cx="3.69154" cy="13.6915" r="1.7" transform="rotate(135 3.69154 13.6915)" fill="black"/>
<circle cx="8.5" cy="11.5" r="1.5" fill="black"/>
<ellipse cx="15.5" cy="18.5" rx="1.5" ry="1.5" transform="rotate(90 15.5 18.5)" fill="black"/>
<circle cx="13.3091" cy="13.6917" r="1.7" transform="rotate(45 13.3091 13.6917)" fill="black"/>
<circle cx="13.3087" cy="23.3085" r="1.7" transform="rotate(135 13.3087 23.3085)" fill="black"/>
</svg>
