<svg width="99" height="27" viewBox="0 0 99 27" fill="none" xmlns="http://www.w3.org/2000/svg">
<path d="M34.504 14.978C34.504 13.934 34.714 13.022 35.134 12.242C35.566 11.462 36.16 10.862 36.916 10.442C37.684 10.022 38.56 9.812 39.544 9.812C40.804 9.812 41.854 10.142 42.694 10.802C43.546 11.462 44.104 12.392 44.368 13.592H41.092C40.816 12.824 40.282 12.44 39.49 12.44C38.926 12.44 38.476 12.662 38.14 13.106C37.804 13.538 37.636 14.162 37.636 14.978C37.636 15.794 37.804 16.424 38.14 16.868C38.476 17.3 38.926 17.516 39.49 17.516C40.282 17.516 40.816 17.132 41.092 16.364H44.368C44.104 17.54 43.546 18.464 42.694 19.136C41.842 19.808 40.792 20.144 39.544 20.144C38.56 20.144 37.684 19.934 36.916 19.514C36.16 19.094 35.566 18.494 35.134 17.714C34.714 16.934 34.504 16.022 34.504 14.978ZM52.1884 9.848C53.3404 9.848 54.2644 10.232 54.9604 11C55.6564 11.756 56.0044 12.8 56.0044 14.132V20H52.9444V14.546C52.9444 13.874 52.7704 13.352 52.4224 12.98C52.0744 12.608 51.6064 12.422 51.0184 12.422C50.4304 12.422 49.9624 12.608 49.6144 12.98C49.2664 13.352 49.0924 13.874 49.0924 14.546V20H46.0144V6.68H49.0924V11.306C49.4044 10.862 49.8304 10.508 50.3704 10.244C50.9104 9.98 51.5164 9.848 52.1884 9.848ZM57.5313 14.96C57.5313 13.928 57.7233 13.022 58.1073 12.242C58.5033 11.462 59.0373 10.862 59.7093 10.442C60.3813 10.022 61.1313 9.812 61.9593 9.812C62.6673 9.812 63.2853 9.956 63.8133 10.244C64.3533 10.532 64.7673 10.91 65.0553 11.378V9.956H68.1333V20H65.0553V18.578C64.7553 19.046 64.3353 19.424 63.7953 19.712C63.2673 20 62.6493 20.144 61.9413 20.144C61.1253 20.144 60.3813 19.934 59.7093 19.514C59.0373 19.082 58.5033 18.476 58.1073 17.696C57.7233 16.904 57.5313 15.992 57.5313 14.96ZM65.0553 14.978C65.0553 14.21 64.8393 13.604 64.4073 13.16C63.9873 12.716 63.4713 12.494 62.8593 12.494C62.2473 12.494 61.7253 12.716 61.2933 13.16C60.8733 13.592 60.6633 14.192 60.6633 14.96C60.6633 15.728 60.8733 16.34 61.2933 16.796C61.7253 17.24 62.2473 17.462 62.8593 17.462C63.4713 17.462 63.9873 17.24 64.4073 16.796C64.8393 16.352 65.0553 15.746 65.0553 14.978ZM73.4381 11.63C73.7981 11.078 74.2481 10.646 74.7881 10.334C75.3281 10.01 75.9281 9.848 76.5881 9.848V13.106H75.7421C74.9741 13.106 74.3981 13.274 74.0141 13.61C73.6301 13.934 73.4381 14.51 73.4381 15.338V20H70.3601V9.956H73.4381V11.63ZM81.1374 6.68V20H78.0594V6.68H81.1374ZM84.916 8.912C84.376 8.912 83.932 8.756 83.584 8.444C83.248 8.12 83.08 7.724 83.08 7.256C83.08 6.776 83.248 6.38 83.584 6.068C83.932 5.744 84.376 5.582 84.916 5.582C85.444 5.582 85.876 5.744 86.212 6.068C86.56 6.38 86.734 6.776 86.734 7.256C86.734 7.724 86.56 8.12 86.212 8.444C85.876 8.756 85.444 8.912 84.916 8.912ZM86.446 9.956V20H83.368V9.956H86.446ZM98.1445 14.816C98.1445 15.104 98.1265 15.404 98.0905 15.716H91.1245C91.1725 16.34 91.3705 16.82 91.7185 17.156C92.0785 17.48 92.5165 17.642 93.0325 17.642C93.8005 17.642 94.3345 17.318 94.6345 16.67H97.9105C97.7425 17.33 97.4365 17.924 96.9925 18.452C96.5605 18.98 96.0145 19.394 95.3545 19.694C94.6945 19.994 93.9565 20.144 93.1405 20.144C92.1565 20.144 91.2805 19.934 90.5125 19.514C89.7445 19.094 89.1445 18.494 88.7125 17.714C88.2805 16.934 88.0645 16.022 88.0645 14.978C88.0645 13.934 88.2745 13.022 88.6945 12.242C89.1265 11.462 89.7265 10.862 90.4945 10.442C91.2625 10.022 92.1445 9.812 93.1405 9.812C94.1125 9.812 94.9765 10.016 95.7325 10.424C96.4885 10.832 97.0765 11.414 97.4965 12.17C97.9285 12.926 98.1445 13.808 98.1445 14.816ZM94.9945 14.006C94.9945 13.478 94.8145 13.058 94.4545 12.746C94.0945 12.434 93.6445 12.278 93.1045 12.278C92.5885 12.278 92.1505 12.428 91.7905 12.728C91.4425 13.028 91.2265 13.454 91.1425 14.006H94.9945Z" fill="black"/>
<path d="M0.594 13.664C0.594 12.416 0.864 11.306 1.404 10.334C1.944 9.35 2.694 8.588 3.654 8.048C4.626 7.496 5.724 7.22 6.948 7.22C8.448 7.22 9.732 7.616 10.8 8.408C11.868 9.2 12.582 10.28 12.942 11.648H9.558C9.306 11.12 8.946 10.718 8.478 10.442C8.022 10.166 7.5 10.028 6.912 10.028C5.964 10.028 5.196 10.358 4.608 11.018C4.02 11.678 3.726 12.56 3.726 13.664C3.726 14.768 4.02 15.65 4.608 16.31C5.196 16.97 5.964 17.3 6.912 17.3C7.5 17.3 8.022 17.162 8.478 16.886C8.946 16.61 9.306 16.208 9.558 15.68H12.942C12.582 17.048 11.868 18.128 10.8 18.92C9.732 19.7 8.448 20.09 6.948 20.09C5.724 20.09 4.626 19.82 3.654 19.28C2.694 18.728 1.944 17.966 1.404 16.994C0.864 16.022 0.594 14.912 0.594 13.664Z" fill="black"/>
<circle cx="7.5" cy="13.7" r="1.5" fill="black"/>
<circle cx="12.5" cy="13.7" r="1.5" fill="black"/>
<circle cx="17.5" cy="13.7" r="1.5" fill="black"/>
<circle cx="22.5" cy="13.7" r="1.5" fill="black"/>
</svg>
