<?xml version="1.0" standalone="no"?>
<!DOCTYPE svg PUBLIC "-//W3C//DTD SVG 20010904//EN"
 "http://www.w3.org/TR/2001/REC-SVG-20010904/DTD/svg10.dtd">
<svg version="1.0" xmlns="http://www.w3.org/2000/svg"
 width="700.000000pt" height="700.000000pt" viewBox="0 0 700.000000 700.000000"
 preserveAspectRatio="xMidYMid meet">
<metadata>
Created by potrace 1.14, written by Peter Selinger 2001-2017
</metadata>
<g transform="translate(0.000000,700.000000) scale(0.100000,-0.100000)"
fill="#000000" stroke="none">
<path d="M3365 6984 c-294 -72 -490 -366 -439 -657 22 -126 66 -216 148 -304
191 -206 491 -247 733 -101 118 71 220 212 258 358 16 59 22 183 11 236 -48
237 -225 422 -451 469 -83 17 -189 17 -260 -1z"/>
<path d="M1311 6130 c-182 -43 -329 -164 -406 -333 -34 -75 -47 -141 -48 -242
0 -145 60 -291 163 -396 107 -108 231 -166 377 -176 268 -18 504 139 594 397
30 87 33 267 5 350 -66 198 -212 340 -407 395 -81 23 -193 25 -278 5z"/>
<path d="M5430 6129 c-217 -55 -378 -214 -434 -429 -22 -84 -14 -248 16 -330
94 -252 324 -403 588 -387 180 12 331 96 435 242 54 76 70 112 93 203 55 217
-31 458 -212 596 -141 107 -322 146 -486 105z"/>
<path d="M567 4084 c-1 -1 -27 -4 -58 -7 -214 -23 -410 -186 -480 -399 -30
-93 -33 -250 -5 -343 75 -252 311 -422 579 -417 293 5 545 252 561 549 15 296
-204 568 -489 608 -58 8 -104 12 -108 9z"/>
<path d="M6398 4085 c-2 -2 -30 -6 -62 -10 -180 -20 -355 -146 -439 -316 -47
-96 -64 -174 -61 -279 4 -156 69 -296 188 -406 83 -77 167 -120 285 -144 83
-17 103 -17 196 -5 209 27 398 188 466 397 34 103 34 252 0 356 -69 211 -255
369 -468 397 -67 9 -102 12 -105 10z"/>
<path d="M1280 1996 c-252 -74 -416 -285 -424 -544 -10 -332 271 -610 604
-595 151 6 282 64 390 173 320 321 161 869 -282 976 -13 4 -66 8 -118 9 -76 3
-110 -1 -170 -19z"/>
<path d="M5435 2006 c-202 -47 -357 -188 -426 -386 -28 -83 -35 -246 -13 -323
29 -103 84 -197 153 -266 78 -78 131 -111 236 -146 279 -94 589 45 709 318 75
169 63 374 -32 536 -62 107 -204 218 -329 257 -70 21 -225 27 -298 10z"/>
<path d="M3448 1165 c-2 -2 -21 -5 -43 -8 -99 -11 -219 -71 -307 -155 -239
-227 -240 -602 -2 -837 220 -217 589 -216 807 1 174 173 226 410 137 633 -66
169 -230 311 -405 351 -47 11 -180 22 -187 15z"/>
</g>
</svg>
